<svg width="760" height="760" viewBox="0 0 760 760" fill="none" xmlns="http://www.w3.org/2000/svg">
<g clip-path="url(#clip0_449_206)">
<path d="M539.334 379.457V398.551C535.849 436.693 518.756 472.308 491.178 498.887C463.601 525.465 427.38 541.233 389.136 543.308H220.888V539.344L380.772 379.457H539.334Z" fill="#6EE7B7"/>
<path d="M380.772 224.553V379.458L220.888 539.344V379.458H221.073C222.22 339.645 238.223 301.702 265.932 273.092C293.642 244.482 331.054 227.276 370.809 224.857C374.02 224.645 377.244 224.553 380.507 224.553H380.772Z" fill="#34D399"/>
<path d="M695.915 384.082C695.946 467.735 662.775 547.981 603.687 607.194C544.598 666.408 464.423 699.748 380.772 699.891H380.111C338.635 699.909 297.561 691.752 259.238 675.887C220.915 660.022 186.094 636.761 156.766 607.432C127.437 578.103 104.176 543.281 88.3117 504.958C72.4473 466.634 64.2906 425.56 64.308 384.082C64.308 382.536 64.308 380.99 64.308 379.458C65.4888 296.493 99.2856 217.329 158.386 159.093C217.487 100.856 297.14 68.2303 380.111 68.2735H380.772C436.506 68.3008 491.23 83.1496 539.334 111.297V224.857H390.207C387.088 224.654 383.943 224.553 380.772 224.553H380.508C377.244 224.553 374.02 224.645 370.809 224.857C331.054 227.275 293.642 244.482 265.933 273.092C238.223 301.702 222.221 339.645 221.073 379.458H220.888V543.308H389.136C427.38 541.233 463.601 525.466 491.179 498.887C518.757 472.308 535.85 436.694 539.334 398.551V224.857H652.891C680.361 271.8 695.172 325.072 695.875 379.458C695.901 380.99 695.915 382.536 695.915 384.082Z" fill="#D1FAE5"/>
<path d="M539.995 224.196H380.111V380.118H539.995V224.196Z" fill="#A7F3D0"/>
<path d="M759.999 380.115C760.273 476.849 723.376 569.991 656.933 640.294C619.293 680.21 573.482 711.533 522.629 732.123C471.776 752.713 417.078 762.086 362.271 759.601C288.736 756.145 217.789 731.396 158.058 688.366C98.3268 645.335 52.3848 585.876 25.8185 517.219C-0.747662 448.562 -6.79348 373.665 8.41627 301.635C23.626 229.606 59.436 163.548 111.492 111.493C178.369 44.6096 267.79 5.07779 362.267 0.627768C456.745 -3.82226 549.485 27.1295 622.353 87.4307C630.049 81.9305 639.483 79.4203 648.894 80.3694C658.305 81.3184 667.049 85.6617 673.491 92.5876C679.933 99.5135 683.634 108.548 683.9 118.003C684.167 127.459 680.982 136.687 674.94 143.965C668.898 151.243 660.413 156.072 651.071 157.55C641.728 159.028 632.167 157.054 624.174 151.996C616.181 146.938 610.303 139.143 607.638 130.067C604.974 120.991 605.705 111.256 609.695 102.679C528.497 35.2892 422.063 6.50964 313.236 26.0396C264.491 34.7861 218.2 53.9213 177.507 82.1452C59.6815 163.938 1.91197 300.357 25.0885 441.467C33.764 494.241 54.4962 544.302 85.6725 587.756C169.05 703.932 306.338 759.601 447.538 734.099C496.274 725.285 542.54 706.077 583.188 677.782C683.571 607.881 740.178 498.379 740.178 380.115C740.298 331.085 730.317 282.556 710.857 237.552C709.806 235.143 709.755 232.415 710.715 229.967C711.675 227.52 713.568 225.555 715.978 224.504C718.387 223.452 721.115 223.401 723.562 224.361C726.009 225.322 727.975 227.215 729.026 229.624C749.579 277.127 760.123 328.356 759.999 380.115Z" fill="#34D399"/>
</g>
<defs>
<clipPath id="clip0_449_206">
<rect width="759.778" height="759.778" fill="white" transform="translate(0.222168 0.222107)"/>
</clipPath>
</defs>
</svg>
